<svg xmlns="http://www.w3.org/2000/svg" color="white" fill="currentColor" viewBox="0 0 2971.94 2704.4">
  <g id="Capa_2" data-name="Capa 2">
    <g id="logos">
      <path d="M142.4,1432.6q-2.46-41.74-2.35-84.15C142.08,601.31,747.23,2.07,1494.36,7c425,2.82,803.14,202.7,1047.73,512.83,69,87.53,152.34,163.21,247.09,221.91,101.09,62.64,146.93,147,168.87,225.74,21.08,75.73-9.07,188.4-52,277.44-44.78,93-74.37,192.61-88.63,294.82-91.26,654.14-652.95,1157.63-1332.23,1157.63-214.31,0-412.54-61.08-592.35-150.23l-22.4-12C335.29,2214,688,1651.84,883.68,1442.72s568.64-373.4,889-393.76c196.43-12.49,371.74,27.11,464.53,114.69s97.32,223.61-.26,355c-94.75,127.59-294.52,239.37-493.09,285.15a127.87,127.87,0,0,1-34,3.25h0a166.07,166.07,0,0,1-165.94-172.54c3.29-86.63,74.3-157,161-159.52a165.8,165.8,0,0,1,137.25,65.56,8.6,8.6,0,0,0,15.1-3h0a9.2,9.2,0,0,0,.25-1.27c.83-6.54,7.25-47.13,7.48-50.9,16.5-275.51-385.12-174.62-501.56-125.31-130.17,55.13-248.17,131-328.16,216.49-152.56,163-153.88,349.32-.44,439.09,37.75,22.08,83.32,38.22,134.37,48.84,103.85,21.6,230.35,20.38,359.77,0h0q66.81-9.27,132.77-23.66c228.65-50.09,434.05-121.54,708.79-278.72l31.17-18.45c402.08-266.38,606.45-574.31,522.33-809.75-124.76-349.19-857.78-409.25-1664.52-121C522.23,1076.28-2.95,1530.46,7.14,1873.26c.15,5.09,7.54,5.64,8.45.63L35.21,1766c10.06-55.37,25.08-111.82,55.41-159.23h0C124.44,1553.89,146.1,1495.24,142.4,1432.6Z"/>
    </g>
  </g>
</svg>
