<?xml version="1.0" encoding="UTF-8"?>
<svg version="1.1" viewBox="0 0 2048 1841" width="1280" height="1280" xmlns="http://www.w3.org/2000/svg">
<path transform="translate(999)" d="m0 0h47l42 2 34 3 40 5 35 6 43 9 38 10 39 12 29 10 33 13 30 13 29 14 28 14 23 13 30 18 39 26 14 10 19 14 16 13 10 8 13 11 11 9 17 16 8 7 42 42 7 8 11 12 9 11 9 10 11 14 20 25 11 13 11 12 15 16 24 22 11 9 15 12 18 13 15 10 21 13 12 8 16 12 13 11 13 12 14 15 13 17 9 13 9 15 10 19 10 25 6 18 5 21 2 16v32l-3 26-6 29-8 28-9 26-10 24-18 39-13 33-11 33-10 38-7 35-8 51-8 38-10 37-13 40-15 38-13 29-12 25-12 22-14 25-15 24-22 33-10 14-14 19-14 18-13 16-11 13-12 14-10 11-7 8-12 13-8 8-7 8-29 29-8 7-11 11-8 7-14 13-11 9-10 9-14 11-16 13-36 26-29 19-21 13-28 16-29 15-24 12-34 15-36 14-44 15-39 11-42 10-44 8-36 5-42 4-42 2h-45l-37-2-39-4-40-6-39-8-40-10-36-11-41-14-40-16-32-14-27-13-16-8-17-10-18-12-14-10-13-10-13-11-8-7-10-9-18-18-7-8-13-16-13-18-12-20-12-23-10-24-7-21-6-24-4-24-2-20v-52l4-36 7-36 8-30 12-36 12-30 15-33 10-20 13-23 10-18 12-19 22-33 13-18 16-21 13-16 11-13 9-11 7-7 7-8 28-28 8-7 15-13 14-11 15-12 18-13 19-13 20-13 28-17 25-14 29-15 26-13 36-16 30-12 35-13 46-15 40-11 42-10 43-8 43-6 34-3 18-1h62l40 3 35 5 34 7 31 9 26 10 25 12 17 10 14 10 11 9 18 18 12 16 10 18 7 18 5 21 2 18v17l-2 19-5 22-7 21-9 20-10 18-12 18-10 13-11 13-11 12-14 14-8 7-14 12-13 10-18 13-21 14-25 15-22 12-16 8-27 13-32 13-33 12-37 11-21 5-16 2h-25l-20-3-16-6-16-9-14-11-9-9-10-13-10-19-5-15-3-15-1-16 2-21 5-19 5-12 7-13 10-13 11-11 14-10 16-8 15-5 15-3 10-1h13l16 2 15 4 15 6 9 4h15l9-4 6-5 5-9 1-4v-11l-4-18-5-13-7-12-9-11-9-8-15-9-14-6-16-5-22-4-26-2h-20l-30 2-36 5-34 7-34 9-36 12-30 13-29 14-29 15-27 16-22 14-17 12-16 12-14 11-15 13-12 11-21 21-9 11-10 12-14 20-12 21-11 23-8 24-4 17-2 15v29l3 18 5 17 9 19 8 12 8 10 16 16 18 13 22 12 19 8 27 9 29 7 31 5 28 3 16 1h68l41-3 48-6 50-8 50-10 54-13 48-13 42-13 53-18 39-15 41-17 29-13 30-14 60-30 22-12 24-13 48-28 20-14 16-11 18-13 16-12 17-13 14-11 11-9 13-11 11-9 11-10 8-7 12-11 15-14 13-13 9-11 12-14 29-38 11-16 26-39 12-21 10-21 9-25 6-20 6-31 3-31v-25l-2-24-4-23-7-24-6-15-10-19-9-13-8-10-11-12-9-9-11-9-15-11-19-12-27-14-22-10-30-11-30-9-38-9-32-6-36-5-41-4-33-2-30-1h-50l-52 2-54 4-54 6-57 8-57 10-58 12-59 14-56 15-51 15-47 15-56 19-51 19-38 15-41 17-32 14-33 15-34 16-64 32-22 12-24 13-24 14-21 12-28 17-19 12-25 16-22 15-23 16-18 13-21 16-12 9-14 11-17 14-13 11-14 12-12 11-8 7-15 14-36 36-7 8-12 13-9 11-11 13-10 13-14 19-14 21-12 19-9 16-8 16-6 16-7 28-3 20-1 29-4 10-6 8-8 7-12 5-12 1-10-2-12-6-5-4-7-10-4-12v-14l5-30 5-19 15-39 12-34 10-31 10-37 8-34 7-38 6-43 10-83 6-41 9-48 11-49 11-42 12-39 11-32 12-30 12-27 14-29 16-31 14-24 12-20 11-17 8-12 14-20 14-19 10-13 13-16 9-11 12-14 11-12 7-8 16-17 25-25 8-7 16-15 11-9 10-9 11-9 15-12 16-12 18-13 17-12 20-13 21-13 24-14 24-13 27-14 28-13 36-15 35-13 36-12 43-12 49-11 41-7 39-5 34-3z" fill="#F8F8F8"/>
</svg>
