<?xml version="1.0" encoding="UTF-8"?>
<svg version="1.1" viewBox="0 0 2048 1885" width="1280" height="1280" xmlns="http://www.w3.org/2000/svg">
<path transform="translate(973)" d="m0 0h50l41 2 44 4 49 7 38 7 43 10 42 12 36 12 25 9 32 13 29 13 33 16 30 16 27 16 23 14 31 21 18 13 16 12 14 11 16 13 13 11 10 9 8 7 12 11 16 15 22 22 7 8 7 7 7 8 10 11 9 11 11 13 22 28 11 13 9 10 7 8 30 30 8 7 13 11 17 13 19 14 17 11 21 13 20 14 11 9 10 9 8 7 10 10 9 11 10 12 14 21 12 21 12 27 10 30 5 25 1 11v28l-3 27-5 26-8 30-11 32-11 26-15 32-11 27-10 28-8 25-11 44-6 33-7 45-9 42-10 36-12 36-10 27-12 28-13 28-11 22-26 46-15 23-10 16-12 17-13 18-16 21-11 14-9 11-11 13-9 11-12 13-7 8-12 13-16 17-37 37-8 7-8 8-8 7-14 13-11 9-15 13-14 11-18 14-18 13-23 16-22 14-28 17-29 16-31 16-33 15-36 15-42 15-39 12-38 10-42 9-42 7-42 5-41 3-25 1h-47l-37-2-40-4-45-7-39-8-43-11-42-13-34-12-40-16-36-16-25-12-16-8-20-12-19-13-19-14-11-9-13-11-13-12-18-18-7-8-13-16-13-18-11-18-10-18-10-22-9-25-7-25-5-27-3-30v-44l3-32 6-35 9-36 10-32 13-34 12-27 14-29 15-28 16-27 12-19 10-15 14-20 14-19 10-13 13-16 9-11 9-10 7-8 9-10 32-32 8-7 14-12 14-11 15-12 18-13 16-11 23-15 21-13 28-16 28-15 28-14 36-16 28-12 40-15 36-12 29-9 41-11 41-9 38-7 45-6 37-3 23-1h42l36 2 36 4 34 6 32 8 30 10 21 9 16 8 16 9 17 12 11 9 11 10 7 8 10 13 8 13 8 16 6 18 4 19 1 8v31l-3 20-5 20-8 22-9 19-13 22-12 17-13 16-18 20-13 13-8 7-10 9-14 11-18 14-33 22-20 12-22 12-16 8-25 12-30 12-38 13-33 9-19 4-18 2h-19l-19-2-21-5-13-5-15-8-9-7-11-11-7-11-5-12-2-7-1-8v-10l3-16 8-16 8-10 10-8 12-6 12-3h17l30 6 7 1h21l15-4 16-7 14-10 11-11 9-13 8-17 4-14 1-6v-28l-4-17-5-13-9-17-11-14-10-9-15-9-21-8-22-5-27-3h-37l-33 3-32 5-33 7-30 8-36 12-24 10-28 13-28 14-23 13-20 12-33 22-19 14-16 13-11 9-15 14-10 9-7 8-7 7-9 11-12 15-14 21-9 16-8 16-8 20-6 21-3 16-1 8v31l3 18 5 16 7 16 9 15 8 10 11 12 13 11 15 10 18 10 23 10 28 9 30 7 31 5 30 3 16 1h64l32-2 46-5 59-9 47-9 56-13 46-12 47-14 40-13 44-16 45-18 35-15 30-14 25-12 50-25 22-12 26-14 48-28 16-11 23-16 18-13 21-16 12-9 14-11 17-14 13-11 14-12 11-10 8-7 15-14 21-21 9-11 11-13 10-13 16-21 14-20 28-42 10-18 12-25 9-25 7-25 5-27 2-17 1-18v-18l-2-26-4-24-7-25-6-15-8-16-9-14-10-13-11-12-12-12-14-11-18-13-26-15-27-13-28-11-30-10-34-9-39-8-39-6-37-4-41-3-24-1h-80l-44 2-52 4-47 5-64 9-52 9-55 11-56 13-51 13-56 16-42 13-49 16-43 15-48 18-50 20-38 16-38 17-26 12-34 16-42 21-19 10-28 15-23 13-28 16-51 31-17 11-44 29-15 11-17 12-19 14-18 14-14 11-16 13-14 12-10 9-8 7-17 16-31 31-7 8-7 7-7 8-12 13-9 11-12 13-9 11-9 10-9 11-9 10-9 11-13 15-12 14-9 9-10 6-3 1h-13l-10-5-7-9-4-10-1-6v-16l6-38 17-89 7-46 11-91 7-46 12-60 10-42 11-41 13-41 11-30 14-34 13-28 10-21 10-19 15-27 17-28 28-42 13-18 16-21 11-14 11-13 9-11 11-12 7-8 14-15 13-13 5-6 8-7 16-16 8-7 12-11 11-9 15-13 14-11 18-14 18-13 20-14 20-13 24-15 26-15 28-15 32-16 29-13 40-16 34-12 31-10 44-12 41-9 33-6 35-5 39-4 30-2z" fill="#770E89"/>
</svg>
